# xmcd
#
# Track frame offsets: 
#        150
#        14673
#        28746
#        41319
#        52167
#        68640
#
# Disc length: 1097 seconds
#
# Revision: 0
# Processed by: cddbd v1.5.2PL0 Copyright (c) Steve Scherf et al.
# Submitted via: ExactAudioCopy v0.90b4
#
DISCID=4c044706
DTITLE=Conny Lee - Don't Think (It's Over Yet)
DYEAR=2007
DGENRE=Country
TTITLE0=Don't Think
TTITLE1=Absence
TTITLE2=Crazy Arms
TTITLE3=Seven Lonely Days
TTITLE4=Terang Bulan
TTITLE5=Sweet Little Dangerous
EXTD=
EXTT0=
EXTT1=
EXTT2=
EXTT3=
EXTT4=
EXTT5=
PLAYORDER=
